<svg class="g-global-nav-logo" xmlns="http://www.w3.org/2000/svg" width="196" height="53" viewBox="0 0 196 53"><g fill="#FFFFFE" fill-rule="evenodd"><path d="M9.593 36.086c-1.22 0-2.176-.522-2.767-1.51-.57-.923-.85-2.23-.86-3.996l-.038-8.087c-.008-1.765.262-3.077.824-4.012.576-.984 1.546-1.526 2.734-1.526l8.163-.044L14.296 11l-5.68.047c-2.915.02-5.027.993-6.455 2.978C.71 16.04-.018 19.152 0 23.27l.03 6.496.04.155-.038.042v.102c.046 4.013.802 7.047 2.247 9.017C3.72 41.046 5.83 42 8.73 42h.036l5.884-.022L18 36.07l-8.407.016M40.52 5.766l-5.697-3.16C31.716.876 28.983 0 26.7 0c-2.95.026-5.1 1.355-6.77 4.183L17 9.21l3.397 5.726 4.216-7.19c.594-1.034 1.61-1.627 2.79-1.627 1.103 0 2.306.38 3.787 1.203l7 3.888c2.294 1.28 3.42 2.617 3.44 4.09.004.55-.155 1.104-.472 1.644L37.01 24h6.79l2.896-4.95c.87-1.48 1.308-2.92 1.304-4.29-.01-3.213-2.527-6.24-7.48-8.994m5.174 27.324L42.827 28l-6.61.034 4.114 7.286c.315.57.477 1.142.48 1.692-.013 1.542-1.097 2.94-3.312 4.272l-6.757 4.09c-1.423.863-2.618 1.285-3.65 1.29-1.203 0-2.158-.578-2.762-1.672L20.3 37.814l-3.3 5.92 2.82 5.01c1.645 2.903 3.73 4.255 6.565 4.256 2.227-.01 4.894-.943 7.926-2.775l5.51-3.33c4.784-2.9 7.2-6.052 7.18-9.366v-.086c-.017-1.38-.457-2.846-1.306-4.354m26.29-1.92c.203 0 .384.076.54.23L74 32.955c-.816.983-1.82 1.736-3.01 2.26-1.194.523-2.624.784-4.294.784-1.492 0-2.835-.248-4.027-.744-1.193-.496-2.21-1.187-3.054-2.07-.845-.884-1.49-1.94-1.94-3.167C57.225 28.79 57 27.45 57 26c0-1.47.24-2.817.724-4.04.482-1.222 1.16-2.275 2.038-3.16.876-.883 1.922-1.57 3.137-2.063 1.214-.492 2.558-.737 4.033-.737 1.466 0 2.766.234 3.902.703 1.136.47 2.103 1.083 2.9 1.84l-1.252 1.692c-.074.108-.17.203-.285.285-.116.08-.275.12-.48.12-.138 0-.282-.037-.43-.114-.15-.077-.312-.17-.487-.284-.176-.113-.38-.237-.612-.372-.232-.135-.5-.26-.807-.372-.305-.113-.66-.207-1.063-.285-.403-.076-.87-.115-1.398-.115-.9 0-1.724.156-2.47.468-.747.31-1.39.762-1.927 1.352-.538.59-.955 1.313-1.252 2.165-.296.853-.444 1.825-.444 2.917 0 1.1.16 2.08.48 2.936.32.858.753 1.58 1.3 2.165.548.588 1.192 1.036 1.934 1.348.742.31 1.54.467 2.393.467.51 0 .972-.028 1.384-.08.413-.055.793-.14 1.14-.258.35-.118.678-.27.988-.454.31-.185.62-.412.925-.684.093-.082.19-.147.293-.196.102-.05.208-.075.32-.075m11.413-2.723h6.207l-2.37-6.652c-.116-.295-.237-.643-.363-1.044-.125-.4-.252-.836-.377-1.306-.126.47-.25.908-.37 1.314-.122.406-.24.76-.357 1.065l-2.37 6.624zM96 36h-2.8c-.315 0-.57-.082-.77-.243-.197-.16-.345-.362-.443-.6l-1.454-4.08h-8.066l-1.454 4.08c-.073.212-.21.404-.418.58-.206.175-.463.263-.768.263H77l7.662-20h3.69L96 36zm7.378-19.98c.116.015.218.042.307.084.088.04.174.1.258.18.083.078.176.182.278.31l10.573 13.39c-.028-.324-.052-.64-.07-.955-.02-.315-.028-.605-.028-.873V16H118v20h-1.924c-.298 0-.547-.05-.747-.146-.2-.097-.393-.26-.58-.49l-10.53-13.32c.03.296.05.588.065.878.013.29.02.556.02.796V36H101V16h1.966c.158 0 .295.007.412.02M139 16v3.057h-6.114V36h-3.773V19.057H123V16h16M145 16h4v20h-4M158.38 16.02c.115.015.216.042.305.084.09.04.175.1.258.18.084.078.177.182.278.31l10.573 13.39c-.028-.324-.05-.64-.07-.955-.018-.315-.028-.605-.028-.873V16H173v20h-1.924c-.298 0-.547-.05-.747-.146-.2-.097-.393-.26-.578-.49l-10.53-13.32c.028.296.05.588.063.878.014.29.02.556.02.796V36H156V16h1.966c.158 0 .295.007.413.02m25.017 12.427h6.207l-2.37-6.652c-.117-.295-.238-.643-.363-1.044-.125-.4-.25-.836-.376-1.306-.126.47-.25.908-.37 1.314-.122.406-.24.76-.357 1.065l-2.37 6.624zM196 36h-2.8c-.315 0-.57-.082-.768-.243-.198-.16-.346-.362-.445-.6l-1.454-4.08h-8.066l-1.454 4.08c-.072.212-.21.404-.418.58-.206.175-.462.263-.767.263H177l7.662-20h3.69L196 36z"></path></g></svg>